HIERARCHY
ROOT Hips
{
	OFFSET 0.00000 0.00000 0.00000
	CHANNELS 6 Xposition Yposition Zposition Yrotation Zrotation Xrotation 
	JOINT Lumbar
	{
		OFFSET 0 0 0
		CHANNELS 3 Zrotation Xrotation Yrotation
		JOINT Neck
		{
			OFFSET 0.00 0.2701 0.00
			CHANNELS 3 Zrotation Xrotation Yrotation
			End Site
			{
				OFFSET 0.00 0.1379 0.00
			}
		}
		JOINT RightShoulder
		{
			OFFSET 0.0119 0.2289 0.1181
			CHANNELS 3 Zrotation Xrotation Yrotation
			JOINT RightElbow
			{
				OFFSET 0.00 -0.1475 0.00
				CHANNELS 2 Zrotation Yrotation
				JOINT RightWrist
				{
					OFFSET 0.00 -0.1605 0.00
					CHANNELS 2 Zrotation Xrotation
					End Site
					{
						OFFSET 0.0040 -0.1068 0.0006
					}
				}
			}
		}
		JOINT LeftShoulder
		{
			OFFSET 0.0119 0.2289 -0.1181
			CHANNELS 3 Zrotation Xrotation Yrotation
			JOINT LeftElbow
			{
				OFFSET 0.00 -0.1475 0.00
				CHANNELS 2 Zrotation Yrotation
				JOINT LeftWrist
				{
					OFFSET 0.00 -0.1605 0.00
					CHANNELS 2 Zrotation Xrotation
					End Site
					{
						OFFSET 0.0040 -0.1068 -0.0006
					}
				}
			}
		}
	}
	JOINT RightHip
	{
		OFFSET 0.0316 -0.0424 0.0458
		CHANNELS 3 Zrotation Xrotation Yrotation
		JOINT RightKnee
		{
			OFFSET 0.00 -0.2438 0.00
			CHANNELS 1 Zrotation
			JOINT RightAnkle
			{
				OFFSET 0.00 -0.2449 0.00
				CHANNELS 3 Zrotation Xrotation Yrotation
				End Site
				{
					OFFSET 0.1237 -0.0542 0.0051
				}
			}
		}
	}
	JOINT LeftHip
	{
		OFFSET 0.0316 -0.0424 -0.0458
		CHANNELS 3 Zrotation Xrotation Yrotation
		JOINT LeftKnee
		{
			OFFSET 0.00 -0.2438 0.00
			CHANNELS 1 Zrotation
			JOINT LeftAnkle
			{
				OFFSET 0.00 -0.2449 0.00
				CHANNELS 3 Zrotation Xrotation Yrotation
				End Site
				{
					OFFSET 0.1237 -0.0542 -0.0051
				}
			}
		}
	}
}
MOTION
Frames: 31
Frame Time: 0.02
-0 0.57926 0 184.49464 0 -3.08415 2.02376 2.44385 -2.06002 -25.68523 3.58494 0.2596 -28.30271 -72.44317 -89.7542 25.2714 72.38395 -20.5517 -1.83565 -15.1648 76.4779 73.15578 24.25216 -69.76421 -33.00293 2.32184 -3.68331 2.31284 7.78078 -6.30583 -1.56816 -3.62195 -5.64663 -2.20542 5.01659 -0.47239 -6.41011 -0.14526 2.05385 -0.9967
2e-05 0.57926 -1e-05 184.49476 0 -3.08436 2.02176 2.44583 -2.06263 -25.69153 3.57936 0.25372 -28.13753 -72.4291 -89.5749 25.26313 72.30047 -20.55998 -1.86527 -15.21383 76.46987 73.15043 24.26709 -69.71313 -32.95515 2.29955 -3.67997 2.31375 7.77733 -6.30965 -1.56623 -3.61945 -5.63303 -2.20344 5.01806 -0.47069 -6.41073 -0.13622 2.02502 -1.00444
3e-05 0.57926 -3e-05 184.49488 0 -3.08456 2.01978 2.44777 -2.0652 -25.69767 3.5738 0.24789 -27.97458 -72.41547 -89.39452 25.2539 72.21799 -20.57126 -1.89495 -15.26261 76.46191 73.14542 24.28202 -69.66281 -32.90792 2.2776 -3.67669 2.31466 7.77394 -6.3134 -1.5643 -3.61692 -5.61959 -2.20145 5.01952 -0.46911 -6.41139 -0.12727 1.99642 -1.01199
5e-05 0.57925 -5e-05 184.495 0 -3.08476 2.01788 2.44965 -2.06759 -25.70345 3.56825 0.24231 -27.82063 -72.4049 -89.20124 25.23786 72.13922 -20.60268 -1.92584 -15.30822 76.45444 73.13984 24.29639 -69.61466 -32.86263 2.25716 -3.67353 2.31561 7.77085 -6.3169 -1.56248 -3.6143 -5.60675 -2.19942 5.02099 -0.46785 -6.41219 -0.11868 1.96849 -1.01892
7e-05 0.57925 -6e-05 184.49513 0 -3.08498 2.01563 2.45193 -2.07086 -25.71137 3.56266 0.2355 -27.62105 -72.37981 -89.06814 25.25445 72.04139 -20.53704 -1.95118 -15.36749 76.44469 73.13501 24.31282 -69.55458 -32.80729 2.22913 -3.66965 2.31638 7.7663 -6.32173 -1.56024 -3.61221 -5.59084 -2.19767 5.02245 -0.46473 -6.41223 -0.10826 1.93706 -1.02921
8e-05 0.57925 -8e-05 184.49525 0 -3.08515 2.01408 2.45331 -2.07234 -25.71458 3.55716 0.23123 -27.51676 -72.38431 -88.81343 25.20438 71.98359 -20.67022 -1.98764 -15.39996 76.43954 73.13013 24.3255 -69.52008 -32.77312 2.21692 -3.66733 2.31752 7.76475 -6.32372 -1.5588 -3.60896 -5.58138 -2.1953 5.02391 -0.46566 -6.4139 -0.10168 1.91306 -1.03232
9e-05 0.57924 -0.0001 184.4953 0 -3.08515 2.01486 2.45248 -2.06822 -25.70604 3.55165 0.23457 -27.69444 -72.48352 -88.15497 24.94155 72.0425 -21.43331 -2.06207 -15.33779 76.44941 73.11206 24.32287 -69.55544 -32.79981 2.25206 -3.66926 2.31975 7.77268 -6.31786 -1.56024 -3.6027 -5.59056 -2.19118 5.02542 -0.47724 -6.42011 -0.10613 1.90944 -1.01564
0.0001 0.57924 -0.00013 184.49537 0 -3.08509 2.01628 2.45068 -2.06242 -25.69256 3.54625 0.24036 -27.96511 -72.61045 -87.38444 24.61608 72.141 -22.3842 -2.1466 -15.25193 76.46345 73.09617 24.31751 -69.61683 -32.84738 2.30261 -3.67277 2.32235 7.78346 -6.30914 -1.5624 -3.59526 -5.60611 -2.18645 5.02691 -0.49297 -6.42798 -0.11439 1.91331 -0.99175
0.0001 0.57924 -0.00016 184.49548 0 -3.08505 2.01715 2.44914 -2.05784 -25.68042 3.54097 0.24463 -28.1811 -72.71618 -86.70988 24.33804 72.21715 -23.19611 -2.22172 -15.19073 76.47415 73.08793 24.31641 -69.66681 -32.88397 2.34368 -3.6756 2.32475 7.79214 -6.30173 -1.56377 -3.58821 -5.61821 -2.182 5.02838 -0.50724 -6.4351 -0.12062 1.91382 -0.97104
0.00011 0.57924 -0.00019 184.4954 0 -3.08505 2.0191 2.44838 -2.05133 -25.67187 3.53504 0.25058 -28.44917 -72.85765 -85.84967 23.9814 72.31072 -24.22973 -2.31667 -15.07241 76.49117 73.04381 24.30193 -69.71489 -32.92716 2.39493 -3.67831 2.32732 7.80409 -6.29425 -1.56698 -3.58171 -5.63261 -2.17751 5.02998 -0.51996 -6.44222 -0.12808 1.9142 -0.95051
0.00012 0.57924 -0.00021 184.4957 0 -3.08495 2.019 2.44575 -2.04843 -25.65493 3.5304 0.25364 -28.63126 -72.93195 -85.34407 23.77185 72.37865 -24.85193 -2.37335 -15.06551 76.49571 73.07419 24.31548 -69.77329 -32.96117 2.42897 -3.68161 2.3296 7.81007 -6.2863 -1.56668 -3.57387 -5.64377 -2.17301 5.03131 -0.5366 -6.44969 -0.1339 1.91658 -0.92816
0.00011 0.57925 -0.00024 184.49716 0 -3.08457 2.01273 2.4384 -2.05623 -25.61363 3.52989 0.24777 -28.54921 -72.80801 -85.89086 23.99942 72.35557 -24.24304 -2.3165 -15.38882 76.46714 73.31663 24.40101 -69.85276 -32.96788 2.40889 -3.68634 2.33093 7.7976 -6.27728 -1.55515 -3.56179 -5.64407 -2.16828 5.03177 -0.5655 -6.45825 -0.1341 1.92305 -0.90027
0.00011 0.57925 -0.00027 184.49901 0 -3.08409 2.00442 2.42918 -2.06769 -25.56441 3.5305 0.23891 -28.37775 -72.61644 -86.78942 24.37486 72.3074 -23.2228 -2.22185 -15.82219 76.42523 73.63297 24.51653 -69.94228 -32.96385 2.3715 -3.69156 2.33196 7.77926 -6.26798 -1.54029 -3.54856 -5.64096 -2.16363 5.03198 -0.5978 -6.46705 -0.13253 1.93122 -0.8712
0.0001 0.57925 -0.0003 184.50058 0 -3.0837 1.99732 2.42069 -2.07721 -25.52048 3.53028 0.23171 -28.25035 -72.46004 -87.4974 24.67158 72.27744 -22.42311 -2.14798 -16.19385 76.38809 73.91057 24.6216 -70.02739 -32.96288 2.3439 -3.69642 2.33316 7.76448 -6.25912 -1.52787 -3.53641 -5.63961 -2.15921 5.03237 -0.62682 -6.47538 -0.13186 1.93834 -0.84423
0.0001 0.57926 -0.00033 184.50245 0 -3.08316 1.98916 2.41265 -2.08773 -25.46955 3.53167 0.22357 -28.11346 -72.28671 -88.33282 25.01226 72.21963 -21.48814 -2.05907 -16.61301 76.35731 74.20881 24.71089 -70.11117 -32.9711 2.30872 -3.70193 2.33422 7.74611 -6.24882 -1.51165 -3.5219 -5.63755 -2.15373 5.03248 -0.66301 -6.4852 -0.13092 1.94685 -0.81055
9e-05 0.57926 -0.00036 184.50393 0 -3.08288 1.98258 2.40325 -2.09721 -25.43099 3.52966 0.21637 -27.97174 -72.13116 -88.98571 25.30043 72.21395 -20.7347 -1.99263 -16.96095 76.30913 74.48311 24.84304 -70.20174 -32.9564 2.28503 -3.70617 2.33549 7.73367 -6.24153 -1.50243 -3.51202 -5.63613 -2.15036 5.0331 -0.68538 -6.49205 -0.13009 1.9528 -0.79045
7e-05 0.57926 -0.00037 184.50308 0 -3.08345 1.98188 2.39034 -2.10156 -25.43211 3.52064 0.21473 -27.85525 -72.04994 -89.06662 25.3824 72.35378 -20.58282 -1.99522 -17.07358 76.22384 74.65909 25.06263 -70.29176 -32.8889 2.29715 -3.70697 2.3375 7.74027 -6.24232 -1.51437 -3.51529 -5.63688 -2.15376 5.03548 -0.66558 -6.48962 -0.12983 1.95095 -0.80996
5e-05 0.57926 -0.00037 184.50201 0 -3.08426 1.98266 2.37616 -2.10502 -25.44535 3.50769 0.21369 -27.7327 -71.98701 -88.94875 25.41239 72.54804 -20.62651 -2.02211 -17.11238 76.11989 74.81045 25.32907 -70.39134 -32.79716 2.32143 -3.70645 2.3397 7.75282 -6.2462 -1.53328 -3.52322 -5.63843 -2.1591 5.03833 -0.63229 -6.48435 -0.12976 1.94648 -0.84288
3e-05 0.57926 -0.00037 184.50185 0 -3.08485 1.98204 2.36269 -2.10977 -25.45065 3.49472 0.21089 -27.60235 -71.91007 -88.91073 25.48167 72.71958 -20.58047 -2.03926 -17.19363 76.01963 74.98304 25.58912 -70.49737 -32.7112 2.3401 -3.70641 2.34173 7.76185 -6.24891 -1.54833 -3.52894 -5.63991 -2.16287 5.0408 -0.60728 -6.48103 -0.12971 1.94339 -0.8685
1e-05 0.57926 -0.00038 184.49842 0 -3.08587 1.98432 2.3486 -2.11086 -25.46574 3.48925 0.21431 -27.51632 -71.85553 -88.92971 25.48593 72.87988 -20.52555 -2.04951 -17.24385 75.93977 75.11823 25.78599 -70.55792 -32.6468 2.35832 -3.70687 2.34411 7.77412 -6.25068 -1.56618 -3.53505 -5.64012 -2.16945 5.04398 -0.57349 -6.47498 -0.12918 1.93958 -0.89916
-1e-05 0.57926 -0.00038 184.50159 0 -3.08608 1.98105 2.33548 -2.11935 -25.46367 3.46743 0.2049 -27.33415 -71.75868 -88.77754 25.61637 73.07919 -20.53871 -2.0805 -17.33631 75.81235 75.32149 26.12686 -70.71566 -32.5321 2.38088 -3.706 2.3458 7.78115 -6.25506 -1.5799 -3.54144 -5.64313 -2.17074 5.04578 -0.55452 -6.47386 -0.1297 1.93661 -0.92254
3e-05 0.57927 -0.00037 184.52444 0 -3.08395 1.96124 2.32561 -2.14807 -25.4091 3.39964 0.1605 -26.91782 -71.54796 -88.2036 26.06529 73.35277 -20.71384 -2.16207 -17.5909 75.56483 75.74295 26.84012 -71.13652 -32.28247 2.40993 -3.7014 2.34579 7.77205 -6.26678 -1.5806 -3.54768 -5.65419 -2.15621 5.04367 -0.58165 -6.48774 -0.13332 1.93666 -0.92216
7e-05 0.57928 -0.00036 184.55367 0 -3.08102 1.93596 2.31669 -2.18431 -25.33721 3.31591 0.1031 -26.39942 -71.29284 -87.46098 26.6507 73.66758 -20.94957 -2.264 -17.88396 75.26864 76.22794 27.69953 -71.65524 -31.9834 2.44344 -3.69553 2.34505 7.75757 -6.28087 -1.57692 -3.55401 -5.66789 -2.13643 5.04014 -0.62381 -6.50659 -0.13795 1.93765 -0.91402
0.00011 0.57929 -0.00035 184.57912 0 -3.07851 1.91378 2.30716 -2.2174 -25.27477 3.24061 0.05121 -25.90917 -71.05364 -86.79379 27.2002 73.97689 -21.1442 -2.3573 -18.14205 74.99076 76.6688 28.5004 -72.13113 -31.70841 2.47669 -3.69051 2.34452 7.74571 -6.29324 -1.57517 -3.56018 -5.6801 -2.11959 5.03725 -0.65778 -6.52266 -0.142 1.93816 -0.90976
0.00015 0.57929 -0.00035 184.60835 0 -3.07576 1.88908 2.29836 -2.24941 -25.20635 3.15999 0.00083 -25.49732 -70.83352 -86.1297 27.63568 74.23235 -21.39907 -2.44885 -18.47524 74.7294 77.17712 29.26795 -72.60082 -31.42607 2.50306 -3.68442 2.34454 7.73324 -6.30832 -1.57383 -3.56707 -5.69379 -2.10056 5.03445 -0.69689 -6.54069 -0.14662 1.93877 -0.9047
0.00019 0.5793 -0.00033 184.63111 0 -3.07331 1.86826 2.28824 -2.28538 -25.14577 3.08692 -0.05557 -24.89593 -70.56223 -85.41587 28.34429 74.60886 -21.54484 -2.54852 -18.65731 74.42093 77.55551 30.14115 -73.10605 -31.14723 2.54447 -3.68013 2.34319 7.72075 -6.31841 -1.57059 -3.57237 -5.70474 -2.0847 5.03105 -0.72918 -6.55604 -0.15023 1.93949 -0.89901
0.00021 0.57931 -0.0003 184.63564 0 -3.07195 1.86001 2.27457 -2.33108 -25.11399 3.03705 -0.12718 -23.81385 -70.16556 -84.65501 29.75256 75.31141 -21.3352 -2.66601 -18.45321 74.00561 77.59984 31.252 -73.69027 -30.89392 2.62786 -3.68223 2.33885 7.70902 -6.31321 -1.56257 -3.57357 -5.70998 -2.07986 5.02698 -0.73782 -6.56117 -0.15153 1.93963 -0.89567
0.00022 0.57931 -0.00026 184.63324 0 -3.07088 1.85571 2.25949 -2.38043 -25.09 2.99565 -0.20407 -22.54131 -69.71758 -83.84135 31.43545 76.13388 -21.01964 -2.79083 -18.08823 73.54213 77.50322 32.46756 -74.30632 -30.64555 2.72591 -3.68596 2.33304 7.69751 -6.30312 -1.55284 -3.5731 -5.71199 -2.07818 5.0222 -0.73938 -6.56377 -0.15165 1.93998 -0.89148
0.00024 0.57931 -0.00023 184.63315 0 -3.06962 1.8493 2.24485 -2.42768 -25.06058 2.95137 -0.2774 -21.34432 -69.29007 -83.02114 33.00641 76.89979 -20.77793 -2.91183 -17.77098 73.09384 77.44557 33.64659 -74.90413 -30.39216 2.81609 -3.68823 2.32752 7.68617 -6.29584 -1.54432 -3.57312 -5.71371 -2.07445 5.01735 -0.74495 -6.56857 -0.15187 1.94066 -0.88616
0.00024 0.57931 -0.0002 184.63665 0 -3.06861 1.84418 2.2311 -2.47694 -25.03894 2.90235 -0.35614 -20.19001 -68.87429 -82.32543 34.52667 77.67532 -20.43161 -3.03538 -17.56319 72.6737 77.49844 34.78297 -75.51972 -30.14749 2.91133 -3.69355 2.32362 7.67348 -6.28602 -1.53402 -3.57418 -5.72258 -2.07326 5.01422 -0.74755 -6.56901 -0.154 1.93958 -0.88697
0.00027 0.57931 -0.00015 184.63116 0 -3.06713 1.83718 2.21513 -2.52292 -25.0027 2.86555 -0.42464 -18.90316 -68.42092 -81.35816 36.21733 78.45945 -20.27506 -3.15542 -17.08743 72.18216 77.28381 36.03252 -76.10652 -29.88806 2.99971 -3.69285 2.31595 7.66378 -6.28046 -1.52685 -3.57281 -5.71619 -2.06745 5.00725 -0.75462 -6.578 -0.15183 1.9422 -0.87493
